<?xml version="1.0" encoding="UTF-8"?>
<svg version="1.1" xmlns="http://www.w3.org/2000/svg" width="37" height="37">
<path d="M0 0 C1.41702513 0.14230808 2.8336096 0.28900746 4.25 0.4375 C5.43335938 0.55931641 5.43335938 0.55931641 6.640625 0.68359375 C8.82364639 0.97634993 10.8773182 1.42064419 13 2 C12.98839844 2.72574219 12.97679687 3.45148437 12.96484375 4.19921875 C14.62595289 8.69361593 18.40846939 9.80722097 22.5625 11.8125 C23.36880859 12.21919922 24.17511719 12.62589844 25.00585938 13.04492188 C26.99651866 14.04614104 28.99394217 15.03010417 31 16 C31 17.32 31 18.64 31 20 C19.10531692 14.225882 19.10531692 14.225882 15.625 11.625 C13.09303363 9.68641972 13.09303363 9.68641972 10.0625 10.3125 C7 10 7 10 5.06640625 8.046875 C-0 1.56350604 -0 1.56350604 0 0 Z " fill="#2A4B16" transform="translate(3,9)"/>
<path d="M0 0 C0.90878906 0.56267578 0.90878906 0.56267578 1.8359375 1.13671875 C7.75051725 4.74916207 13.75477385 7.99697636 20 11 C20 12.32 20 13.64 20 15 C12.89852704 11.50333565 5.87573101 7.9240283 -1 4 C-0.67 2.68 -0.34 1.36 0 0 Z " fill="#818F76" transform="translate(14,14)"/>
<path d="M0 0 C1.41702513 0.14230808 2.8336096 0.28900746 4.25 0.4375 C5.43335938 0.55931641 5.43335938 0.55931641 6.640625 0.68359375 C8.82364639 0.97634993 10.8773182 1.42064419 13 2 C12.67 2.99 12.34 3.98 12 5 C12 4.34 12 3.68 12 3 C11.38125 3.185625 10.7625 3.37125 10.125 3.5625 C8 4 8 4 6 3 C5.67 3.99 5.34 4.98 5 6 C3.31237149 4.3545622 1.6459651 2.68711423 0 1 C0 0.67 0 0.34 0 0 Z " fill="#6A7F5E" transform="translate(3,9)"/>
<path d="M0 0 C1.67180274 0.94934513 3.33733936 1.90973313 5 2.875 C5.928125 3.40867187 6.85625 3.94234375 7.8125 4.4921875 C8.8953125 5.23855469 8.8953125 5.23855469 10 6 C10 6.66 10 7.32 10 8 C5.87248551 7.39301257 2.6678852 5.96189209 -1 4 C-0.67 2.68 -0.34 1.36 0 0 Z " fill="#6B7E5F" transform="translate(14,14)"/>
<path d="M0 0 C0.33 0.66 0.66 1.32 1 2 C3.02463255 2.65213292 3.02463255 2.65213292 5 3 C4.34 3 3.68 3 3 3 C3 3.66 3 4.32 3 5 C1.0625 4.6875 1.0625 4.6875 -1 4 C-1.33 3.01 -1.66 2.02 -2 1 C-1.34 0.67 -0.68 0.34 0 0 Z " fill="#3E592D" transform="translate(10,14)"/>
</svg>
