<?xml version="1.0" encoding="UTF-8"?>
<svg version="1.1" xmlns="http://www.w3.org/2000/svg" width="37" height="37">
<path d="M0 0 C-1.21670529 2.7652393 -2.75429298 5.25053897 -4.4375 7.75 C-4.84871094 8.36359375 -5.25992187 8.9771875 -5.68359375 9.609375 C-6.11800781 10.06828125 -6.55242188 10.5271875 -7 11 C-7.99 11 -8.98 11 -10 11 C-10 10.34 -10 9.68 -10 9 C-10.55985596 9.30292969 -11.11971191 9.60585938 -11.6965332 9.91796875 C-14.23177047 11.28509867 -16.77202314 12.6426333 -19.3125 14 C-20.63411133 14.71542969 -20.63411133 14.71542969 -21.98242188 15.4453125 C-22.82998047 15.89648438 -23.67753906 16.34765625 -24.55078125 16.8125 C-25.33106689 17.23144531 -26.11135254 17.65039062 -26.9152832 18.08203125 C-29 19 -29 19 -32 19 C-32 18.34 -32 17.68 -32 17 C-31.45996338 16.72325439 -30.91992676 16.44650879 -30.36352539 16.16137695 C-27.92007434 14.89634277 -25.49155714 13.60494172 -23.0625 12.3125 C-22.21236328 11.87744141 -21.36222656 11.44238281 -20.48632812 10.99414062 C-19.67744141 10.55908203 -18.86855469 10.12402344 -18.03515625 9.67578125 C-17.2862915 9.28302002 -16.53742676 8.89025879 -15.76586914 8.4855957 C-13.43650315 6.52593968 -13.3144023 4.95971825 -13 2 C-4.57142857 -0.28571429 -4.57142857 -0.28571429 0 0 Z " fill="#5C7652" transform="translate(34,9)"/>
<path d="M0 0 C0.66 1.32 1.32 2.64 2 4 C-1.09883145 5.67673137 -4.20488455 7.3396134 -7.3125 9 C-8.63411133 9.71542969 -8.63411133 9.71542969 -9.98242188 10.4453125 C-10.82998047 10.89648438 -11.67753906 11.34765625 -12.55078125 11.8125 C-13.33106689 12.23144531 -14.11135254 12.65039062 -14.9152832 13.08203125 C-17 14 -17 14 -20 14 C-20 13.34 -20 12.68 -20 12 C-19.4652002 11.70754395 -18.93040039 11.41508789 -18.37939453 11.11376953 C-15.95929377 9.78773736 -13.5421301 8.45643889 -11.125 7.125 C-10.28324219 6.66480469 -9.44148437 6.20460938 -8.57421875 5.73046875 C-7.36572266 5.06337891 -7.36572266 5.06337891 -6.1328125 4.3828125 C-5.01737061 3.77010498 -5.01737061 3.77010498 -3.87939453 3.14501953 C-1.85678395 2.0140901 -1.85678395 2.0140901 0 0 Z " fill="#66765D" transform="translate(22,14)"/>
<path d="M0 0 C-0.66 1.32 -1.32 2.64 -2 4 C-3.0828125 3.7525 -3.0828125 3.7525 -4.1875 3.5 C-6.86427545 3.02412881 -9.28949487 2.922557 -12 3 C-12.33 3.66 -12.66 4.32 -13 5 C-13 4.01 -13 3.02 -13 2 C-4.57142857 -0.28571429 -4.57142857 -0.28571429 0 0 Z " fill="#87957C" transform="translate(34,9)"/>
<path d="M0 0 C-0.33 0.99 -0.66 1.98 -1 3 C-4.5625 4.1875 -4.5625 4.1875 -8 5 C-8.33 3.68 -8.66 2.36 -9 1 C-5.846632 0.29925156 -3.27275026 0 0 0 Z " fill="#2A4A18" transform="translate(31,11)"/>
<path d="M0 0 C0.66 1.32 1.32 2.64 2 4 C-1.465 5.485 -1.465 5.485 -5 7 C-5.66 6.34 -6.32 5.68 -7 5 C-4.69 3.35 -2.38 1.7 0 0 Z " fill="#758669" transform="translate(22,14)"/>
</svg>
