<?xml version="1.0" encoding="UTF-8"?>
<svg version="1.1" xmlns="http://www.w3.org/2000/svg" width="37" height="37">
<path d="M0 0 C3.57011026 3.732388 4.10913442 8.0949989 5 13 C4.01 13 3.02 13 2 13 C2.02320313 14.04800781 2.04640625 15.09601562 2.0703125 16.17578125 C2.08907303 17.55468037 2.10727293 18.9335872 2.125 20.3125 C2.15013672 21.34793945 2.15013672 21.34793945 2.17578125 22.40429688 C2.21217794 26.17135396 2.14378864 27.78431704 0 31 C-1.59412284 27.81175432 -1.10174735 24.37103338 -1.0625 20.875 C-1.05798828 20.12089844 -1.05347656 19.36679687 -1.04882812 18.58984375 C-1.03703499 16.72652873 -1.01909942 14.86325445 -1 13 C-1.99 13 -2.98 13 -4 13 C-3.71517632 11.58194169 -3.42181856 10.16559621 -3.125 8.75 C-2.96257813 7.96109375 -2.80015625 7.1721875 -2.6328125 6.359375 C-2.00849925 4.03168856 -1.15161458 2.10968048 0 0 Z " fill="#536C46" transform="translate(18,3)"/>
<path d="M0 0 C2.12508244 3.18762365 2.5020163 5.26512223 3 9 C2.01 9 1.02 9 0 9 C0 13.95 0 18.9 0 24 C-0.33 24 -0.66 24 -1 24 C-1.02696009 21.2291017 -1.04681952 18.4584655 -1.0625 15.6875 C-1.07087891 14.90181641 -1.07925781 14.11613281 -1.08789062 13.30664062 C-1.09111328 12.54931641 -1.09433594 11.79199219 -1.09765625 11.01171875 C-1.10289307 10.31522217 -1.10812988 9.61872559 -1.11352539 8.90112305 C-1 7 -1 7 0 4 C0 2.68 0 1.36 0 0 Z " fill="#819775" transform="translate(20,7)"/>
</svg>
