<?xml version="1.0" encoding="UTF-8"?>
<svg version="1.1" xmlns="http://www.w3.org/2000/svg" width="37" height="37">
<path d="M0 0 C-1.47742462 3.44797061 -3.41356766 5.62304121 -6.09765625 8.22265625 C-6.89880859 9.00833984 -7.69996094 9.79402344 -8.52539062 10.60351562 C-9.36263672 11.41498047 -10.19988281 12.22644531 -11.0625 13.0625 C-12.72462631 14.67367991 -14.38240142 16.28936445 -16.03515625 17.91015625 C-16.7712915 18.62308838 -17.50742676 19.33602051 -18.26586914 20.07055664 C-20.62858771 22.69938458 -21 24.48912402 -21 28 C-22.26691507 28.67408308 -23.53870749 29.33900497 -24.8125 30 C-25.52019531 30.37125 -26.22789063 30.7425 -26.95703125 31.125 C-29 32 -29 32 -32 32 C-31.33501617 27.61110675 -29.81242323 24.0188515 -28 20 C-27.45601562 20.26425781 -26.91203125 20.52851563 -26.3515625 20.80078125 C-23.76801977 21.27937115 -23.76801977 21.27937115 -21.3359375 19.04296875 C-20.33659932 18.10413013 -19.35028685 17.15129993 -18.375 16.1875 C-17.85373535 15.69209717 -17.3324707 15.19669434 -16.79541016 14.6862793 C-12.41425967 10.49604746 -8.16151592 6.17128598 -3.9609375 1.80078125 C-2 -0 -2 -0 0 0 Z " fill="#596B50" transform="translate(35,2)"/>
<path d="M0 0 C0.99 0.33 1.98 0.66 3 1 C2.01 3.31 1.02 5.62 0 8 C1.65 7.67 3.3 7.34 5 7 C5 7.66 5 8.32 5 9 C-0.625 12 -0.625 12 -4 12 C-3.33501617 7.61110675 -1.81242323 4.0188515 0 0 Z " fill="#5B724F" transform="translate(7,22)"/>
<path d="M0 0 C0.99 0.33 1.98 0.66 3 1 C3 1.66 3 2.32 3 3 C3.99 3.33 4.98 3.66 6 4 C5.67 4.66 5.34 5.32 5 6 C2.69 6 0.38 6 -2 6 C-1.34 4.02 -0.68 2.04 0 0 Z " fill="#2E511D" transform="translate(9,24)"/>
<path d="M0 0 C-1.55500981 3.81684226 -4.03595495 6.19195732 -7 9 C-7.99 8.67 -8.98 8.34 -10 8 C-8.71451591 6.66070495 -7.42141845 5.32871357 -6.125 4 C-5.04605469 2.88625 -5.04605469 2.88625 -3.9453125 1.75 C-2 0 -2 0 0 0 Z " fill="#4E5F45" transform="translate(35,2)"/>
</svg>
