<?xml version="1.0" encoding="UTF-8"?>
<svg version="1.1" xmlns="http://www.w3.org/2000/svg" width="37" height="37">
<path d="M0 0 C0 0.99 0 1.98 0 3 C6.27 3 12.54 3 19 3 C18.67 3.99 18.34 4.98 18 6 C12.06 6 6.12 6 0 6 C0 6.99 0 7.98 0 9 C-4.84659077 8.40895235 -8.60748167 7.02055843 -13 5 C-10.94876752 2.94876752 -9.72994937 2.35852882 -7.0625 1.375 C-6.37285156 1.11460938 -5.68320313 0.85421875 -4.97265625 0.5859375 C-3 0 -3 0 0 0 Z " fill="#6F8564" transform="translate(16,14)"/>
<path d="M0 0 C7.26 0.33 14.52 0.66 22 1 C22 1.33 22 1.66 22 2 C15.73 2 9.46 2 3 2 C3 2.66 3 3.32 3 4 C2.01 3.67 1.02 3.34 0 3 C0 2.01 0 1.02 0 0 Z " fill="#2C491C" transform="translate(12,17)"/>
</svg>
