<?xml version="1.0" encoding="UTF-8"?>
<svg version="1.1" xmlns="http://www.w3.org/2000/svg" width="37" height="37">
<path d="M0 0 C1.41791408 0.45445964 2.83428046 0.91374944 4.25 1.375 C5.43335938 1.75785156 5.43335938 1.75785156 6.640625 2.1484375 C8.86627958 2.95173667 10.90931672 3.89711662 13 5 C12.60663452 5.82902832 12.60663452 5.82902832 12.20532227 6.67480469 C11.71676618 9.2102756 11.71676618 9.2102756 13.90600586 11.47363281 C14.83292236 12.37436523 15.75983887 13.27509766 16.71484375 14.203125 C17.44943565 14.9271048 17.44943565 14.9271048 18.1988678 15.66571045 C19.76708227 17.20591635 21.3517703 18.72785304 22.9375 20.25 C24.00308413 21.29050966 25.06755246 22.33216334 26.13085938 23.375 C28.74108511 25.93007226 31.36636852 28.46903497 34 31 C33.67 31.66 33.34 32.32 33 33 C31.35 32.34 29.7 31.68 28 31 C28 30.34 28 29.68 28 29 C27.34 29 26.68 29 26 29 C26 28.34 26 27.68 26 27 C25.13375 26.64228516 25.13375 26.64228516 24.25 26.27734375 C21.54072974 24.73926845 20.00120824 22.94284339 18 20.5625 C14.42471537 16.29802918 14.42471537 16.29802918 10 13 C7.33238236 12.74875174 7.33238236 12.74875174 5 13 C4.16209211 11.21046815 3.32980604 9.41830305 2.5 7.625 C1.80390625 6.12839844 1.80390625 6.12839844 1.09375 4.6015625 C0 2 0 2 0 0 Z " fill="#879980" transform="translate(2,2)"/>
<path d="M0 0 C5.66153846 1.47692308 5.66153846 1.47692308 7.375 4.125 C7.684375 5.053125 7.684375 5.053125 8 6 C8.66 6 9.32 6 10 6 C10 7.32 10 8.64 10 10 C9.01 10 8.02 10 7 10 C7 9.34 7 8.68 7 8 C6.401875 7.938125 5.80375 7.87625 5.1875 7.8125 C2.09660471 6.66445318 1.4119656 4.89452948 0 2 C0 1.34 0 0.68 0 0 Z " fill="#4C6C3E" transform="translate(2,2)"/>
<path d="M0 0 C1.98 0.66 3.96 1.32 6 2 C5.67 4.31 5.34 6.62 5 9 C2.69 9.33 0.38 9.66 -2 10 C-2.66 8.02 -3.32 6.04 -4 4 C-2.68 4.33 -1.36 4.66 0 5 C0 5.66 0 6.32 0 7 C0.99 7 1.98 7 3 7 C3 5.68 3 4.36 3 3 C2.34 3 1.68 3 1 3 C0.67 2.01 0.34 1.02 0 0 Z " fill="#73846A" transform="translate(9,5)"/>
<path d="M0 0 C1.32 0.33 2.64 0.66 4 1 C4 1.66 4 2.32 4 3 C4.99 3 5.98 3 7 3 C7 3.66 7 4.32 7 5 C5.35 5.33 3.7 5.66 2 6 C1.34 4.02 0.68 2.04 0 0 Z " fill="#7B8E71" transform="translate(5,9)"/>
</svg>
