<svg version="1.1" viewBox="0.0 0.0 540.4724409448819 128.50393700787401" fill="none" stroke="none" stroke-linecap="square" stroke-miterlimit="10" xmlns:xlink="http://www.w3.org/1999/xlink" xmlns="http://www.w3.org/2000/svg"><clipPath id="p.0"><path d="m0 0l540.4724 0l0 128.50394l-540.4724 0l0 -128.50394z" clip-rule="nonzero"/></clipPath><g clip-path="url(#p.0)"><path fill="#5cbe4a" fill-opacity="0.2471" d="m0 0l540.4724 0l0 128.50394l-540.4724 0z" fill-rule="evenodd"/><path fill="#000000" fill-opacity="0.0" d="m0 0.0131233595l540.4724 0l0 128.50394l-540.4724 0z" fill-rule="evenodd"/><path stroke="#000000" stroke-width="1.0" stroke-linejoin="round" stroke-linecap="butt" d="m0 0.0131233595l540.4724 0l0 128.50394l-540.4724 0z" fill-rule="evenodd"/><path fill="#000000" fill-opacity="0.0" d="m0 -0.015748031l540.4724 0l0 128.50394l-540.4724 0z" fill-rule="evenodd"/><path stroke="#5cbe4a" stroke-width="1.0" stroke-linejoin="round" stroke-linecap="butt" d="m0 -0.015748031l540.4724 0l0 128.50394l-540.4724 0z" fill-rule="evenodd"/><path fill="#ffffff" d="m134.75333 81.036224l0 -33.390625l22.53125 0l0 3.9375l-18.109375 0l0 10.34375l15.671875 0l0 3.9375l-15.671875 0l0 15.171875l-4.421875 0zm26.218246 -12.09375q0 -6.71875 3.734375 -9.953125q3.125 -2.6875 7.609375 -2.6875q5.0 0 8.15625 3.265625q3.171875 3.265625 3.171875 9.03125q0 4.671875 -1.40625 7.34375q-1.390625 2.671875 -4.078125 4.15625q-2.671875 1.484375 -5.84375 1.484375q-5.078125 0 -8.21875 -3.25q-3.125 -3.265625 -3.125 -9.390625zm4.21875 0q0 4.640625 2.015625 6.953125q2.03125 2.3125 5.109375 2.3125q3.0625 0 5.078125 -2.3125q2.03125 -2.328125 2.03125 -7.09375q0 -4.484375 -2.046875 -6.796875q-2.03125 -2.3125 -5.0625 -2.3125q-3.078125 0 -5.109375 2.296875q-2.015625 2.296875 -2.015625 6.953125zm39.119858 12.09375l0 -3.546875q-2.828125 4.09375 -7.6875 4.09375q-2.140625 0 -4.0 -0.8125q-1.84375 -0.828125 -2.75 -2.0625q-0.90625 -1.25 -1.265625 -3.046875q-0.25 -1.203125 -0.25 -3.828125l0 -14.984375l4.09375 0l0 13.40625q0 3.21875 0.25 4.328125q0.390625 1.625 1.640625 2.546875q1.265625 0.921875 3.109375 0.921875q1.84375 0 3.453125 -0.9375q1.625 -0.953125 2.296875 -2.578125q0.671875 -1.640625 0.671875 -4.734375l0 -12.953125l4.09375 0l0 24.1875l-3.65625 0zm10.041733 0l0 -24.1875l3.6875 0l0 3.65625q1.421875 -2.5625 2.609375 -3.375q1.203125 -0.828125 2.625 -0.828125q2.078125 0 4.21875 1.3125l-1.40625 3.8125q-1.5 -0.890625 -3.015625 -0.890625q-1.34375 0 -2.421875 0.8125q-1.0625 0.796875 -1.515625 2.234375q-0.6875 2.1875 -0.6875 4.78125l0 12.671875l-4.09375 0zm44.32762 -8.859375l4.03125 0.515625q-0.65625 4.171875 -3.375 6.53125q-2.71875 2.359375 -6.6875 2.359375q-4.96875 0 -7.984375 -3.25q-3.015625 -3.25 -3.015625 -9.296875q0 -3.921875 1.296875 -6.859375q1.296875 -2.9375 3.953125 -4.40625q2.65625 -1.46875 5.765625 -1.46875q3.953125 0 6.453125 2.0q2.5 1.984375 3.21875 5.640625l-4.0 0.625q-0.5625 -2.4375 -2.015625 -3.671875q-1.4375 -1.234375 -3.484375 -1.234375q-3.109375 0 -5.046875 2.234375q-1.9375 2.21875 -1.9375 7.015625q0 4.875 1.859375 7.09375q1.875 2.203125 4.890625 2.203125q2.40625 0 4.03125 -1.46875q1.625 -1.484375 2.046875 -4.5625zm6.015625 -3.234375q0 -6.71875 3.734375 -9.953125q3.125 -2.6875 7.609375 -2.6875q5.0 0 8.15625 3.265625q3.171875 3.265625 3.171875 9.03125q0 4.671875 -1.40625 7.34375q-1.390625 2.671875 -4.078125 4.15625q-2.671875 1.484375 -5.84375 1.484375q-5.078125 0 -8.21875 -3.25q-3.125 -3.265625 -3.125 -9.390625zm4.21875 0q0 4.640625 2.015625 6.953125q2.03125 2.3125 5.109375 2.3125q3.0625 0 5.078125 -2.3125q2.03125 -2.328125 2.03125 -7.09375q0 -4.484375 -2.046875 -6.796875q-2.03125 -2.3125 -5.0625 -2.3125q-3.078125 0 -5.109375 2.296875q-2.015625 2.296875 -2.015625 6.953125zm23.213593 12.09375l0 -24.1875l3.6875 0l0 3.65625q1.421875 -2.5625 2.609375 -3.375q1.203125 -0.828125 2.625 -0.828125q2.078125 0 4.21875 1.3125l-1.40625 3.8125q-1.5 -0.890625 -3.015625 -0.890625q-1.34375 0 -2.421875 0.8125q-1.0625 0.796875 -1.515625 2.234375q-0.6875 2.1875 -0.6875 4.78125l0 12.671875l-4.09375 0zm15.583801 0l0 -24.1875l3.6875 0l0 3.4375q2.671875 -3.984375 7.703125 -3.984375q2.1875 0 4.015625 0.78125q1.84375 0.78125 2.75 2.0625q0.90625 1.28125 1.28125 3.03125q0.21875 1.140625 0.21875 3.984375l0 14.875l-4.09375 0l0 -14.71875q0 -2.5 -0.484375 -3.734375q-0.484375 -1.25 -1.703125 -1.984375q-1.21875 -0.75 -2.859375 -0.75q-2.609375 0 -4.515625 1.671875q-1.90625 1.65625 -1.90625 6.296875l0 13.21875l-4.09375 0zm42.510468 -7.796875l4.234375 0.53125q-1.0 3.71875 -3.71875 5.765625q-2.703125 2.046875 -6.921875 2.046875q-5.3125 0 -8.421875 -3.265625q-3.109375 -3.265625 -3.109375 -9.171875q0 -6.109375 3.140625 -9.46875q3.15625 -3.375 8.171875 -3.375q4.84375 0 7.921875 3.296875q3.078125 3.296875 3.078125 9.296875q0 0.359375 -0.03125 1.09375l-18.03125 0q0.21875 3.984375 2.25 6.109375q2.03125 2.109375 5.0625 2.109375q2.25 0 3.84375 -1.171875q1.59375 -1.1875 2.53125 -3.796875zm-13.46875 -6.625l13.515625 0q-0.28125 -3.046875 -1.546875 -4.578125q-1.96875 -2.375 -5.09375 -2.375q-2.8125 0 -4.75 1.890625q-1.921875 1.890625 -2.125 5.0625zm22.807343 14.421875l0 -24.1875l3.6875 0l0 3.65625q1.421875 -2.5625 2.609375 -3.375q1.203125 -0.828125 2.625 -0.828125q2.078125 0 4.21875 1.3125l-1.40625 3.8125q-1.5 -0.890625 -3.015625 -0.890625q-1.34375 0 -2.421875 0.8125q-1.0625 0.796875 -1.515625 2.234375q-0.6875 2.1875 -0.6875 4.78125l0 12.671875l-4.09375 0zm13.943176 -7.21875l4.046875 -0.640625q0.34375 2.4375 1.90625 3.734375q1.5625 1.296875 4.359375 1.296875q2.828125 0 4.1875 -1.140625q1.375 -1.15625 1.375 -2.703125q0 -1.390625 -1.203125 -2.1875q-0.84375 -0.546875 -4.1875 -1.390625q-4.515625 -1.140625 -6.265625 -1.96875q-1.734375 -0.828125 -2.640625 -2.296875q-0.890625 -1.484375 -0.890625 -3.25q0 -1.625 0.734375 -3.0q0.734375 -1.375 2.015625 -2.296875q0.953125 -0.703125 2.609375 -1.1875q1.65625 -0.484375 3.546875 -0.484375q2.84375 0 4.984375 0.828125q2.15625 0.8125 3.1875 2.21875q1.03125 1.390625 1.40625 3.734375l-4.0 0.546875q-0.28125 -1.859375 -1.59375 -2.90625q-1.296875 -1.0625 -3.6875 -1.0625q-2.828125 0 -4.046875 0.9375q-1.203125 0.9375 -1.203125 2.1875q0 0.796875 0.5 1.4375q0.5 0.65625 1.578125 1.09375q0.609375 0.234375 3.625 1.046875q4.34375 1.15625 6.0625 1.90625q1.71875 0.734375 2.703125 2.15625q0.984375 1.40625 0.984375 3.5q0 2.046875 -1.203125 3.859375q-1.1875 1.8125 -3.453125 2.8125q-2.25 0.984375 -5.09375 0.984375q-4.71875 0 -7.1875 -1.953125q-2.46875 -1.96875 -3.15625 -5.8125z" fill-rule="nonzero"/><path fill="#000000" fill-opacity="0.0" d="m13.410761 20.391077l89.6693 87.74803" fill-rule="evenodd"/><path stroke="#000000" stroke-width="1.0" stroke-linejoin="round" stroke-linecap="butt" d="m17.699095 24.587526l81.09262 79.35513" fill-rule="evenodd"/><path fill="#000000" stroke="#000000" stroke-width="1.0" stroke-linecap="butt" d="m18.85433 23.406998l-4.398715 -1.993454l2.0882425 4.354513z" fill-rule="evenodd"/><path fill="#000000" stroke="#000000" stroke-width="1.0" stroke-linecap="butt" d="m97.63648 105.123184l4.39872 1.993454l-2.0882492 -4.3545074z" fill-rule="evenodd"/><path fill="#000000" fill-opacity="0.0" d="m103.103676 20.391077l-89.6693 87.74803" fill-rule="evenodd"/><path stroke="#000000" stroke-width="1.0" stroke-linejoin="round" stroke-linecap="butt" d="m98.81534 24.587526l-81.09262 79.35513" fill-rule="evenodd"/><path fill="#000000" stroke="#000000" stroke-width="1.0" stroke-linecap="butt" d="m99.97058 25.768057l2.0882416 -4.354513l-4.39872 1.993454z" fill-rule="evenodd"/><path fill="#000000" stroke="#000000" stroke-width="1.0" stroke-linecap="butt" d="m16.56748 102.76213l-2.0882425 4.3545074l4.398715 -1.993454z" fill-rule="evenodd"/></g></svg>