<svg version="1.1" viewBox="0.0 0.0 540.4724409448819 128.50393700787401" fill="none" stroke="none" stroke-linecap="square" stroke-miterlimit="10" xmlns:xlink="http://www.w3.org/1999/xlink" xmlns="http://www.w3.org/2000/svg"><clipPath id="p.0"><path d="m0 0l540.4724 0l0 128.50394l-540.4724 0l0 -128.50394z" clip-rule="nonzero"/></clipPath><g clip-path="url(#p.0)"><path fill="#5cbe4a" fill-opacity="0.25" d="m0 0l540.4724 0l0 128.50394l-540.4724 0z" fill-rule="evenodd"/><path fill="#000000" fill-opacity="0.0" d="m0 0.0131233595l540.4724 0l0 128.50394l-540.4724 0z" fill-rule="evenodd"/><path stroke="#000000" stroke-width="1.0" stroke-linejoin="round" stroke-linecap="butt" d="m0 0.0131233595l540.4724 0l0 128.50394l-540.4724 0z" fill-rule="evenodd"/><path fill="#000000" fill-opacity="0.0" d="m0 -0.015748031l540.4724 0l0 128.50394l-540.4724 0z" fill-rule="evenodd"/><path stroke="#5cbe4a" stroke-width="1.0" stroke-linejoin="round" stroke-linecap="butt" d="m0 -0.015748031l540.4724 0l0 128.50394l-540.4724 0z" fill-rule="evenodd"/><path fill="#ffffff" d="m142.79297 85.83622l0 -42.953125l8.5625 0l10.15625 30.40625q1.40625 4.25 2.046875 6.359375q0.734375 -2.34375 2.296875 -6.875l10.28125 -29.890625l7.640625 0l0 42.953125l-5.46875 0l0 -35.953125l-12.484375 35.953125l-5.125 0l-12.421875 -36.5625l0 36.5625l-5.484375 0zm70.77734 -10.015625l5.453125 0.671875q-1.28125 4.765625 -4.78125 7.40625q-3.484375 2.640625 -8.90625 2.640625q-6.8125 0 -10.8125 -4.203125q-4.0 -4.203125 -4.0 -11.796875q0 -7.84375 4.03125 -12.171875q4.046875 -4.34375 10.5 -4.34375q6.234375 0 10.1875 4.25q3.953125 4.234375 3.953125 11.953125q0 0.46875 -0.03125 1.40625l-23.203125 0q0.296875 5.125 2.90625 7.84375q2.609375 2.71875 6.5 2.71875q2.90625 0 4.953125 -1.515625q2.046875 -1.53125 3.25 -4.859375zm-17.3125 -8.53125l17.375 0q-0.34375 -3.921875 -1.984375 -5.890625q-2.53125 -3.046875 -6.546875 -3.046875q-3.625 0 -6.109375 2.4375q-2.46875 2.421875 -2.734375 6.5zm29.384766 18.546875l0 -31.109375l4.75 0l0 4.421875q3.421875 -5.125 9.90625 -5.125q2.8125 0 5.171875 1.015625q2.359375 1.0 3.53125 2.640625q1.171875 1.640625 1.640625 3.890625q0.28125 1.46875 0.28125 5.140625l0 19.125l-5.265625 0l0 -18.921875q0 -3.234375 -0.625 -4.828125q-0.609375 -1.59375 -2.1875 -2.546875q-1.5625 -0.953125 -3.671875 -0.953125q-3.359375 0 -5.8125 2.140625q-2.4375 2.140625 -2.4375 8.109375l0 17.0l-5.28125 0zm53.759766 0l0 -4.578125q-3.625 5.28125 -9.875 5.28125q-2.75 0 -5.140625 -1.046875q-2.390625 -1.0625 -3.546875 -2.65625q-1.15625 -1.59375 -1.625 -3.921875q-0.3125 -1.546875 -0.3125 -4.921875l0 -19.265625l5.265625 0l0 17.25q0 4.125 0.328125 5.5625q0.5 2.078125 2.109375 3.265625q1.609375 1.1875 3.984375 1.1875q2.375 0 4.453125 -1.203125q2.078125 -1.21875 2.9375 -3.3125q0.875 -2.09375 0.875 -6.078125l0 -16.671875l5.265625 0l0 31.109375l-4.71875 0z" fill-rule="nonzero"/><path fill="#ffffff" d="m14.792651 23.95013l0 0c0 -1.7394791 1.4101267 -3.1496048 3.1496058 -3.1496048l80.62993 0c0.83532715 0 1.6364365 0.33183098 2.2271042 0.9224968c0.5906677 0.5906658 0.9225006 1.3917809 0.9225006 2.227108l0 12.598427c0 1.7394791 -1.4101257 3.1496048 -3.1496048 3.1496048l-80.62993 0c-1.7394791 0 -3.1496058 -1.4101257 -3.1496058 -3.1496048z" fill-rule="evenodd"/><path stroke="#ffffff" stroke-width="1.0" stroke-linejoin="round" stroke-linecap="butt" d="m14.792651 23.95013l0 0c0 -1.7394791 1.4101267 -3.1496048 3.1496058 -3.1496048l80.62993 0c0.83532715 0 1.6364365 0.33183098 2.2271042 0.9224968c0.5906677 0.5906658 0.9225006 1.3917809 0.9225006 2.227108l0 12.598427c0 1.7394791 -1.4101257 3.1496048 -3.1496048 3.1496048l-80.62993 0c-1.7394791 0 -3.1496058 -1.4101257 -3.1496058 -3.1496048z" fill-rule="evenodd"/><path fill="#ffffff" d="m14.792651 57.964565l0 0c0 -1.7394791 1.4101267 -3.1496048 3.1496058 -3.1496048l80.62993 0c0.83532715 0 1.6364365 0.3318329 2.2271042 0.9224968c0.5906677 0.5906677 0.9225006 1.3917809 0.9225006 2.227108l0 12.598431c0 1.7394791 -1.4101257 3.1496048 -3.1496048 3.1496048l-80.62993 0c-1.7394791 0 -3.1496058 -1.4101257 -3.1496058 -3.1496048z" fill-rule="evenodd"/><path stroke="#ffffff" stroke-width="1.0" stroke-linejoin="round" stroke-linecap="butt" d="m14.792651 57.964565l0 0c0 -1.7394791 1.4101267 -3.1496048 3.1496058 -3.1496048l80.62993 0c0.83532715 0 1.6364365 0.3318329 2.2271042 0.9224968c0.5906677 0.5906677 0.9225006 1.3917809 0.9225006 2.227108l0 12.598431c0 1.7394791 -1.4101257 3.1496048 -3.1496048 3.1496048l-80.62993 0c-1.7394791 0 -3.1496058 -1.4101257 -3.1496058 -3.1496048z" fill-rule="evenodd"/><path fill="#ffffff" d="m14.792651 91.98163l0 0c0 -1.7394791 1.4101267 -3.1496048 3.1496058 -3.1496048l80.62993 0c0.83532715 0 1.6364365 0.3318329 2.2271042 0.922493c0.5906677 0.5906677 0.9225006 1.3917847 0.9225006 2.2271118l0 12.598427c0 1.7394791 -1.4101257 3.1496048 -3.1496048 3.1496048l-80.62993 0c-1.7394791 0 -3.1496058 -1.4101257 -3.1496058 -3.1496048z" fill-rule="evenodd"/><path stroke="#ffffff" stroke-width="1.0" stroke-linejoin="round" stroke-linecap="butt" d="m14.792651 91.98163l0 0c0 -1.7394791 1.4101267 -3.1496048 3.1496058 -3.1496048l80.62993 0c0.83532715 0 1.6364365 0.3318329 2.2271042 0.922493c0.5906677 0.5906677 0.9225006 1.3917847 0.9225006 2.2271118l0 12.598427c0 1.7394791 -1.4101257 3.1496048 -3.1496048 3.1496048l-80.62993 0c-1.7394791 0 -3.1496058 -1.4101257 -3.1496058 -3.1496048z" fill-rule="evenodd"/></g></svg>