<?xml version="1.0" encoding="UTF-8"?>
<svg version="1.1" xmlns="http://www.w3.org/2000/svg" width="37" height="37">
<path d="M0 0 C3.78619768 3.14048955 7.38284335 6.3163231 10.7890625 9.8671875 C11.42070312 10.52460938 12.05234375 11.18203125 12.703125 11.859375 C13.99982113 13.2193246 15.28874267 14.58672407 16.5703125 15.9609375 C17.199375 16.610625 17.8284375 17.2603125 18.4765625 17.9296875 C19.03424316 18.51991699 19.59192383 19.11014648 20.16650391 19.71826172 C22.54710445 21.38246316 24.15907716 21.23912672 27 21 C27.86366822 22.78710586 28.71568594 24.5798465 29.5625 26.375 C30.03816406 27.37273438 30.51382813 28.37046875 31.00390625 29.3984375 C31.49697266 30.68621094 31.49697266 30.68621094 32 32 C31.505 32.99 31.505 32.99 31 34 C27.04 32.35 23.08 30.7 19 29 C19 27.35 19 25.7 19 24 C17.64043288 21.971208 17.64043288 21.971208 15.67578125 20.22265625 C14.97646484 19.54396484 14.27714844 18.86527344 13.55664062 18.16601562 C12.81607422 17.47185547 12.07550781 16.77769531 11.3125 16.0625 C9.86882494 14.68075202 8.42737234 13.2966778 6.98828125 11.91015625 C6.30330566 11.25160645 5.61833008 10.59305664 4.91259766 9.91455078 C2.41135336 7.41075224 0.19865699 4.77108839 -2 2 C-1.34 1.34 -0.68 0.68 0 0 Z " fill="#8D9E82" transform="translate(3,1)"/>
<path d="M0 0 C0.66 0 1.32 0 2 0 C2.86366822 1.78710586 3.71568594 3.5798465 4.5625 5.375 C5.27599609 6.87160156 5.27599609 6.87160156 6.00390625 8.3984375 C6.33261719 9.25695313 6.66132812 10.11546875 7 11 C6.67 11.66 6.34 12.32 6 13 C2.04 11.35 -1.92 9.7 -6 8 C-6 7.01 -6 6.02 -6 5 C-5.01 5 -4.02 5 -3 5 C-3 4.01 -3 3.02 -3 2 C-2.01 2 -1.02 2 0 2 C0 1.34 0 0.68 0 0 Z " fill="#6B7F60" transform="translate(28,22)"/>
<path d="M0 0 C1.9375 0.3125 1.9375 0.3125 4 1 C4.33 1.99 4.66 2.98 5 4 C4.34 4.66 3.68 5.32 3 6 C2.01 5.67 1.02 5.34 0 5 C0 3.35 0 1.7 0 0 Z " fill="#264D12" transform="translate(25,25)"/>
</svg>
