<?xml version="1.0" encoding="UTF-8"?>
<svg version="1.1" xmlns="http://www.w3.org/2000/svg" width="37" height="37">
<path d="M0 0 C-0.66498383 4.38889325 -2.18757677 7.9811485 -4 12 C-4.70640625 11.89816406 -5.4128125 11.79632813 -6.140625 11.69140625 C-10.10307833 12.11904807 -12.03104781 14.25086359 -14.75 16.9375 C-15.26933105 17.43096924 -15.78866211 17.92443848 -16.32373047 18.43286133 C-20.39948725 22.32904455 -24.36125489 26.34299733 -28.2578125 30.41796875 C-30 32 -30 32 -32 32 C-30.52257538 28.55202939 -28.58643234 26.37695879 -25.90234375 23.77734375 C-25.10119141 22.99166016 -24.30003906 22.20597656 -23.47460938 21.39648438 C-22.63736328 20.58501953 -21.80011719 19.77355469 -20.9375 18.9375 C-19.27537369 17.32632009 -17.61759858 15.71063555 -15.96484375 14.08984375 C-15.2287085 13.37691162 -14.49257324 12.66397949 -13.73413086 11.92944336 C-11.37141229 9.30061542 -11 7.51087598 -11 4 C-9.73308493 3.32591692 -8.46129251 2.66099503 -7.1875 2 C-6.47980469 1.62875 -5.77210937 1.2575 -5.04296875 0.875 C-3 0 -3 0 0 0 Z " fill="#4C5E43" transform="translate(34,3)"/>
<path d="M0 0 C-0.41421969 4.83256305 -2.46413986 6.82679218 -6 10 C-6.99 9.67 -7.98 9.34 -9 9 C-9 8.34 -9 7.68 -9 7 C-9.99 6.67 -10.98 6.34 -12 6 C-8.82952065 2.30110743 -4.90226152 0 0 0 Z " fill="#425D36" transform="translate(34,3)"/>
<path d="M0 0 C0.33 0.66 0.66 1.32 1 2 C2.98 1.67 4.96 1.34 7 1 C6.67 2.32 6.34 3.64 6 5 C4.8553125 4.938125 4.8553125 4.938125 3.6875 4.875 C0.77281584 4.77919176 0.77281584 4.77919176 -2 7 C-2.66 6.34 -3.32 5.68 -4 5 C-2.68 3.35 -1.36 1.7 0 0 Z " fill="#7E9073" transform="translate(24,10)"/>
<path d="M0 0 C0.66 1.32 1.32 2.64 2 4 C0.02 4.99 0.02 4.99 -2 6 C-3.5 4.625 -3.5 4.625 -5 3 C-5 2.34 -5 1.68 -5 1 C-3.35 0.67 -1.7 0.34 0 0 Z " fill="#284D15" transform="translate(29,7)"/>
<path d="M0 0 C-0.75 4.75 -0.75 4.75 -3 7 C-3 5.35 -3 3.7 -3 2 C-3.66 1.67 -4.32 1.34 -5 1 C-3 0 -3 0 0 0 Z " fill="#748870" transform="translate(34,3)"/>
</svg>
