<?xml version="1.0" encoding="UTF-8"?>
<svg version="1.1" xmlns="http://www.w3.org/2000/svg" width="37" height="37">
<path d="M0 0 C1.41750563 0.11509661 2.83401169 0.24253658 4.25 0.375 C5.03890625 0.44460938 5.8278125 0.51421875 6.640625 0.5859375 C9.085877 1.01507113 10.84836903 1.78600638 13 3 C9.30827405 6.53790403 5.90609405 6.59115883 1 7 C1 6.01 1 5.02 1 4 C-0.258125 4.165 -1.51625 4.33 -2.8125 4.5 C-8.2144509 5.11073012 -13.57060338 5.09133564 -19 5 C-19 4.01 -19 3.02 -19 2 C-12.73 2.33 -6.46 2.66 0 3 C0 2.01 0 1.02 0 0 Z " fill="#5B7150" transform="translate(21,15)"/>
<path d="M0 0 C8.57142857 -0.28571429 8.57142857 -0.28571429 12 2 C9.64031256 4.09749995 8.45383006 4.96905704 5.25 5.1875 C4.13625 5.0946875 4.13625 5.0946875 3 5 C3 4.34 3 3.68 3 3 C2.01 2.67 1.02 2.34 0 2 C0 1.34 0 0.68 0 0 Z " fill="#5D724D" transform="translate(22,16)"/>
<path d="M0 0 C1.98 0 3.96 0 6 0 C5.67 1.65 5.34 3.3 5 5 C4.34 5 3.68 5 3 5 C3 4.34 3 3.68 3 3 C2.01 2.67 1.02 2.34 0 2 C0 1.34 0 0.68 0 0 Z " fill="#2A4C19" transform="translate(22,16)"/>
</svg>
