<svg version="1.1" viewBox="0.0 0.0 359.81102362204723 132.28346456692913" fill="none" stroke="none" stroke-linecap="square" stroke-miterlimit="10" xmlns:xlink="http://www.w3.org/1999/xlink" xmlns="http://www.w3.org/2000/svg"><clipPath id="p.0"><path d="m0 0l359.81104 0l0 132.28346l-359.81104 0l0 -132.28346z" clip-rule="nonzero"/></clipPath><g clip-path="url(#p.0)"><path fill="#000000" fill-opacity="0.0" d="m0 0l359.81104 0l0 132.28346l-359.81104 0z" fill-rule="evenodd"/><path fill="#000000" fill-opacity="0.0" d="m0 53.510624l0 0c0 -3.4877243 2.8273606 -6.3150864 6.315087 -6.3150864l347.18085 0c1.6748657 0 3.281128 0.6653366 4.4654236 1.8496475c1.1843262 1.1843071 1.8496704 2.7905731 1.8496704 4.465439l0 25.259594c0 3.4877243 -2.827362 6.3150864 -6.315094 6.3150864l-347.18085 0c-3.4877262 0 -6.315087 -2.827362 -6.315087 -6.3150864z" fill-rule="evenodd"/><path fill="#980000" d="m146.21407 70.468544l2.96875 -0.25q0.21875 1.78125 0.984375 2.9375q0.78125 1.140625 2.40625 1.859375q1.625 0.703125 3.65625 0.703125q1.8125 0 3.1875 -0.53125q1.390625 -0.546875 2.0625 -1.484375q0.671875 -0.9375 0.671875 -2.046875q0 -1.109375 -0.65625 -1.953125q-0.640625 -0.84375 -2.140625 -1.40625q-0.953125 -0.375 -4.25 -1.15625q-3.28125 -0.796875 -4.59375 -1.5q-1.71875 -0.890625 -2.5625 -2.21875q-0.828125 -1.328125 -0.828125 -2.96875q0 -1.8125 1.015625 -3.375q1.03125 -1.578125 3.0 -2.390625q1.96875 -0.8125 4.390625 -0.8125q2.640625 0 4.671875 0.859375q2.03125 0.84375 3.109375 2.515625q1.09375 1.65625 1.171875 3.75l-3.015625 0.234375q-0.25 -2.265625 -1.65625 -3.421875q-1.40625 -1.15625 -4.15625 -1.15625q-2.859375 0 -4.171875 1.0625q-1.3125 1.046875 -1.3125 2.515625q0 1.296875 0.921875 2.125q0.921875 0.828125 4.765625 1.703125q3.84375 0.859375 5.28125 1.515625q2.078125 0.953125 3.0625 2.4375q1.0 1.46875 1.0 3.390625q0 1.90625 -1.09375 3.59375q-1.078125 1.671875 -3.125 2.609375q-2.046875 0.9375 -4.59375 0.9375q-3.25 0 -5.4375 -0.9375q-2.1875 -0.953125 -3.4375 -2.84375q-1.234375 -1.890625 -1.296875 -4.296875zm29.323349 5.046875l0.421875 2.59375q-1.234375 0.265625 -2.21875 0.265625q-1.59375 0 -2.46875 -0.5q-0.875 -0.515625 -1.234375 -1.328125q-0.359375 -0.828125 -0.359375 -3.46875l0 -9.9375l-2.15625 0l0 -2.28125l2.15625 0l0 -4.28125l2.90625 -1.75l0 6.03125l2.953125 0l0 2.28125l-2.953125 0l0 10.109375q0 1.25 0.15625 1.609375q0.15625 0.359375 0.5 0.578125q0.359375 0.203125 1.015625 0.203125q0.484375 0 1.28125 -0.125zm14.134628 0.5q-1.625 1.375 -3.125 1.953125q-1.5 0.5625 -3.234375 0.5625q-2.84375 0 -4.375 -1.390625q-1.53125 -1.390625 -1.53125 -3.5625q0 -1.265625 0.578125 -2.3125q0.578125 -1.046875 1.515625 -1.671875q0.9375 -0.640625 2.109375 -0.96875q0.859375 -0.234375 2.59375 -0.4375q3.546875 -0.421875 5.234375 -1.015625q0.015625 -0.609375 0.015625 -0.765625q0 -1.78125 -0.828125 -2.515625q-1.125 -1.0 -3.34375 -1.0q-2.0625 0 -3.046875 0.734375q-0.984375 0.71875 -1.453125 2.546875l-2.875 -0.390625q0.390625 -1.828125 1.28125 -2.953125q0.90625 -1.140625 2.59375 -1.75q1.703125 -0.609375 3.921875 -0.609375q2.21875 0 3.59375 0.53125q1.390625 0.515625 2.03125 1.3125q0.65625 0.78125 0.921875 1.984375q0.140625 0.75 0.140625 2.703125l0 3.90625q0 4.078125 0.1875 5.15625q0.1875 1.078125 0.75 2.078125l-3.0625 0q-0.453125 -0.90625 -0.59375 -2.125zm-0.234375 -6.546875q-1.59375 0.65625 -4.78125 1.109375q-1.8125 0.25 -2.5625 0.578125q-0.75 0.328125 -1.15625 0.953125q-0.40625 0.625 -0.40625 1.390625q0 1.171875 0.890625 1.953125q0.890625 0.78125 2.59375 0.78125q1.6875 0 3.0 -0.734375q1.328125 -0.75 1.953125 -2.03125q0.46875 -0.984375 0.46875 -2.921875l0 -1.078125zm7.4730225 8.671875l0 -17.28125l2.625 0l0 2.625q1.015625 -1.84375 1.859375 -2.421875q0.859375 -0.59375 1.890625 -0.59375q1.484375 0 3.0 0.9375l-1.0 2.71875q-1.078125 -0.625 -2.15625 -0.625q-0.953125 0 -1.71875 0.578125q-0.765625 0.578125 -1.09375 1.59375q-0.484375 1.5625 -0.484375 3.421875l0 9.046875l-2.921875 0zm17.520401 -2.625l0.421875 2.59375q-1.234375 0.265625 -2.21875 0.265625q-1.59375 0 -2.46875 -0.5q-0.875 -0.515625 -1.234375 -1.328125q-0.359375 -0.828125 -0.359375 -3.46875l0 -9.9375l-2.15625 0l0 -2.28125l2.15625 0l0 -4.28125l2.90625 -1.75l0 6.03125l2.953125 0l0 2.28125l-2.953125 0l0 10.109375q0 1.25 0.15625 1.609375q0.15625 0.359375 0.5 0.578125q0.359375 0.203125 1.015625 0.203125q0.484375 0 1.28125 -0.125z" fill-rule="nonzero"/></g></svg>